<?xml version="1.0" encoding="UTF-8" standalone="no"?><!DOCTYPE svg PUBLIC "-//W3C//DTD SVG 1.1//EN" "http://www.w3.org/Graphics/SVG/1.1/DTD/svg11.dtd"><svg width="100%" height="100%" viewBox="0 0 515 534" version="1.1" xmlns="http://www.w3.org/2000/svg" xmlns:xlink="http://www.w3.org/1999/xlink" xml:space="preserve" xmlns:serif="http://www.serif.com/" style="fill-rule:evenodd;clip-rule:evenodd;stroke-linejoin:round;stroke-miterlimit:1.41421;"><rect id="Artboard23" x="0" y="0" width="514.297" height="533.008" style="fill:none;"/><path d="M332.209,190.879c2.445,6.836 2.577,15.369 3.962,24.719c3.717,25.111 7.965,64.583 11.682,81.133c3.217,14.325 -4.306,25.05 -17.405,39.098c0.649,0.676 4.246,3.903 15.535,6.238c12.669,2.62 61.481,31.445 75.268,42.675c13.787,11.231 11.924,12.728 12.669,24.707c0.745,11.979 -1.863,29.948 -19.004,42.676c-17.14,12.728 -48.812,13.476 -125.943,1.497c-77.131,-11.979 -138.24,12.354 -152.772,13.477c-14.532,1.123 -2.236,1.497 -7.825,7.112c-5.589,5.616 -3.354,1.124 -10.433,-0.748c-7.08,-1.872 -1.863,-7.113 -2.236,-18.343c-0.373,-11.231 15.277,-5.241 20.494,-9.733c5.216,-4.493 -2.236,-8.61 -2.236,-8.61c0,0 -12.296,0.748 -18.258,-0.375c-5.962,-1.123 -24.593,-4.492 -30.927,-11.23c-6.334,-6.738 -2.608,-22.835 1.118,-40.804c3.726,-17.969 81.975,-41.927 87.937,-45.296l4.471,-0.096c-0.682,-0.544 -1.341,-1.1 -1.974,-1.669c-14.869,-13.347 -18.055,-23.491 -18.055,-46.982c0,-23.491 4.779,-74.211 12.213,-95.032c7.435,-20.822 49.259,-19.159 49.259,-19.159c0,0 0.368,0.111 1.434,0.255c-9.17,-32.18 -14.424,-73.217 -12.761,-81.281c8.158,-39.565 41.179,-37.542 61.213,-33.094c20.035,4.448 26.823,22.852 22.528,69.177c-1.734,18.703 -4.182,33.114 -6.485,43.651c4.628,-0.263 8.804,-0.352 12.572,-0.277c-2.853,8.457 -7.786,16.069 -12.838,23.444c-23.393,34.148 -57.321,59.974 -92.983,81.084l-2.866,-4.94c0,0 -11.683,10.677 -6.373,25.092c5.31,14.415 6.373,19.754 7.966,19.754c1.593,0 11.594,-9.076 11.594,-9.076l-7.188,-22.289c0.96,-0.188 1.641,-0.477 1.641,-0.477c34.698,-20.561 67.632,-45.642 91.649,-77.854c7.462,-10.01 14.373,-20.627 18.435,-32.257c0.222,-0.636 0.345,-1.265 0.379,-1.87c8.75,1.043 14.527,3.333 18.421,6.598c-0.67,0.762 -1.021,1.461 -1.021,1.461c-2.914,9.466 -8.297,17.633 -13.852,25.625c-23.249,33.455 -55.937,58.428 -90.79,79.284c-0.924,0.551 -1.343,0.929 -2.87,1.799c-23.629,13.469 -15.472,13.302 -16.121,15.899c-2.523,10.1 22.154,-8.677 22.154,-8.677c34.642,-20.528 67.607,-45.611 91.648,-77.854c6.634,-8.897 12.802,-18.279 16.974,-28.432Zm-20.322,80.388c0,0 11.683,10.678 6.373,25.093c-5.31,14.415 -6.373,19.753 -7.966,19.753c-1.593,0 -11.594,-9.076 -11.594,-9.076l9.47,-29.363l3.717,-6.407Zm-86.557,-135.413c0,0 10.067,-2.694 13.312,1.227c3.244,3.921 3.196,4.436 3.196,4.436c0,0 -9.331,4.464 -16.508,-5.663Zm54.72,0c0,0 -10.068,-2.694 -13.312,1.227c-3.245,3.921 -3.197,4.436 -3.197,4.436c0,0 9.331,4.464 16.509,-5.663Z" style="fill:#222;"/></svg>